<svg xmlns="http://www.w3.org/2000/svg" xmlns:xlink="http://www.w3.org/1999/xlink" viewBox="740 395 400 400" version="1.0">
  <defs>
    <clipPath id="dcf30e4352">
      <path d="M 750 563 L 868 563 L 868 673.140625 L 750 673.140625 Z M 750 563 " clip-rule="nonzero"/>
    </clipPath>
    <clipPath id="ba04d511f5">
      <path d="M 1072 517.167969 L 1129 517.167969 L 1129 574 L 1072 574 Z M 1072 517.167969 " clip-rule="nonzero"/>
    </clipPath>
  </defs>
  <path fill="#3c7f72" d="M 1079.003906 560.195312 C 1059.050781 577.789062 1037.257812 597.226562 1017.296875 614.816406 C 1017.308594 614.835938 1017.316406 614.851562 1017.328125 614.867188 C 1017.53125 615.148438 1017.722656 615.453125 1017.894531 615.792969 C 1018.089844 616.128906 1018.242188 616.464844 1018.367188 616.796875 C 1019.847656 620.070312 1020.710938 623.597656 1020.964844 627.164062 C 1042.613281 608.074219 1066.101562 587.148438 1087.746094 568.0625 C 1084.335938 566.046875 1081.335938 563.363281 1079.003906 560.195312 Z M 1079.003906 560.195312 " fill-opacity="1" fill-rule="nonzero"/>
  <path fill="#3c7f72" d="M 915.832031 560.296875 C 915.523438 564.644531 914.179688 568.824219 912.027344 572.523438 C 930.167969 588.511719 950.144531 606.34375 968.285156 622.335938 C 969.226562 618.363281 970.996094 614.609375 973.574219 611.421875 C 954.9375 594.996094 934.464844 576.726562 915.832031 560.296875 Z M 915.832031 560.296875 " fill-opacity="1" fill-rule="nonzero"/>
  <g clip-path="url(#dcf30e4352)">
    <path fill="#3c7f72" d="M 795.128906 623.246094 C 790.570312 619.789062 784.863281 617.660156 778.371094 617.308594 C 762.589844 616.460938 751.1875 630.742188 750.402344 645.277344 C 749.554688 661.0625 763.835938 672.464844 778.371094 673.246094 C 793.519531 674.0625 804.605469 660.933594 806.167969 647.023438 C 806.292969 646.492188 806.375 645.925781 806.339844 645.277344 C 806.375 644.648438 806.296875 644.089844 806.171875 643.5625 C 805.734375 639.363281 804.566406 635.503906 802.738281 632.121094 C 823.976562 613.402344 846.128906 593.757812 867.363281 575.039062 C 864.878906 571.804688 863.105469 568.03125 862.328125 563.902344 C 840.234375 583.375 817.222656 603.773438 795.128906 623.246094 Z M 762.109375 645.277344 C 760.980469 624.304688 793.507812 624.414062 794.632812 645.277344 C 793.503906 666.238281 763.238281 666.238281 762.109375 645.277344 Z M 762.109375 645.277344 " fill-opacity="1" fill-rule="nonzero"/>
  </g>
  <path fill="#3c7f72" d="M 916.613281 555.9375 C 916.585938 555.71875 916.550781 555.503906 916.507812 555.289062 C 916.492188 554.992188 916.464844 554.695312 916.40625 554.382812 C 913.753906 540.308594 900.726562 530.394531 886.453125 531.589844 C 871.941406 532.808594 861.375 545.171875 860.980469 559.421875 C 860.925781 561.273438 861.082031 563.074219 861.410156 564.820312 C 862.1875 568.945312 863.960938 572.71875 866.445312 575.957031 C 871.953125 583.121094 880.941406 587.625 890.285156 587.347656 C 900.023438 587.058594 908.335938 581.363281 912.949219 573.441406 C 915.097656 569.746094 916.441406 565.566406 916.75 561.21875 C 916.871094 559.476562 916.839844 557.710938 916.613281 555.9375 Z M 890.285156 575.640625 C 880.597656 576.511719 873.15625 568.703125 872.6875 559.421875 C 872.261719 551.0625 879.15625 544.769531 886.796875 543.261719 C 895.75 541.492188 903.164062 548.789062 904.984375 556.867188 C 905.734375 566.140625 900.140625 574.753906 890.285156 575.640625 Z M 890.285156 575.640625 " fill-opacity="1" fill-rule="nonzero"/>
  <path fill="#3c7f72" d="M 1018.816406 614.875 C 1018.640625 614.53125 1018.449219 614.226562 1018.25 613.949219 C 1018.234375 613.929688 1018.226562 613.914062 1018.21875 613.898438 C 1010.09375 601.066406 993.960938 596.9375 980.460938 604.070312 C 977.339844 605.722656 974.734375 607.925781 972.65625 610.5 C 970.078125 613.691406 968.308594 617.445312 967.367188 621.414062 C 965.683594 628.519531 966.644531 636.324219 970.371094 642.816406 C 977.761719 655.699219 993.992188 659.171875 1006.914062 653.324219 C 1017.660156 648.464844 1022.675781 637.210938 1021.890625 626.242188 C 1021.636719 622.679688 1020.769531 619.148438 1019.289062 615.878906 C 1019.160156 615.542969 1019.011719 615.207031 1018.816406 614.875 Z M 1002.078125 642.65625 C 995.128906 646.773438 985.742188 644.277344 981.117188 637.898438 C 975.757812 630.503906 977.792969 620.082031 985.1875 614.902344 C 993.296875 609.222656 1003.96875 612.632812 1008.707031 620.78125 C 1012.761719 628.894531 1009.738281 638.113281 1002.078125 642.65625 Z M 1002.078125 642.65625 " fill-opacity="1" fill-rule="nonzero"/>
  <g clip-path="url(#ba04d511f5)">
    <path fill="#3c7f72" d="M 1128.921875 543.855469 C 1128.511719 529.160156 1116.113281 518.058594 1101.960938 517.191406 C 1101.648438 517.15625 1101.332031 517.132812 1100.992188 517.144531 C 1100.652344 517.132812 1100.335938 517.15625 1100.03125 517.191406 C 1085.324219 518.054688 1074.285156 529.164062 1073.050781 543.855469 C 1072.515625 550.285156 1074.511719 556.261719 1078.085938 561.113281 C 1080.414062 564.28125 1083.417969 566.964844 1086.828125 568.980469 C 1091.789062 571.914062 1097.609375 573.433594 1103.480469 572.941406 C 1118.363281 571.691406 1129.335938 558.5625 1128.921875 543.855469 Z M 1103.144531 561.269531 C 1092.722656 563.328125 1084.496094 553.425781 1084.765625 543.855469 C 1085.003906 535.296875 1092.910156 529.074219 1100.992188 528.851562 C 1109.433594 529.085938 1116.496094 535.304688 1117.214844 543.855469 C 1117.960938 552.722656 1111.476562 559.625 1103.144531 561.269531 Z M 1103.144531 561.269531 " fill-opacity="1" fill-rule="nonzero"/>
  </g>
</svg>
