<svg xmlns="http://www.w3.org/2000/svg" xmlns:xlink="http://www.w3.org/1999/xlink" viewBox="0 500 1500 450" preserveAspectRatio="xMidYMid meet" version="1.0">
  <defs>
    <g/>
    <clipPath id="dcf30e4352">
      <path d="M 750 563 L 868 563 L 868 673.140625 L 750 673.140625 Z M 750 563 " clip-rule="nonzero"/>
    </clipPath>
    <clipPath id="ba04d511f5">
      <path d="M 1072 517.167969 L 1129 517.167969 L 1129 574 L 1072 574 Z M 1072 517.167969 " clip-rule="nonzero"/>
    </clipPath>
    <clipPath id="5f87a857f4">
      <rect x="0" width="991" y="0" height="310"/>
    </clipPath>
  </defs>
  <path fill="#3c7f72" d="M 1079.003906 560.195312 C 1059.050781 577.789062 1037.257812 597.226562 1017.296875 614.816406 C 1017.308594 614.835938 1017.316406 614.851562 1017.328125 614.867188 C 1017.53125 615.148438 1017.722656 615.453125 1017.894531 615.792969 C 1018.089844 616.128906 1018.242188 616.464844 1018.367188 616.796875 C 1019.847656 620.070312 1020.710938 623.597656 1020.964844 627.164062 C 1042.613281 608.074219 1066.101562 587.148438 1087.746094 568.0625 C 1084.335938 566.046875 1081.335938 563.363281 1079.003906 560.195312 Z M 1079.003906 560.195312 " fill-opacity="1" fill-rule="nonzero"/>
  <path fill="#3c7f72" d="M 915.832031 560.296875 C 915.523438 564.644531 914.179688 568.824219 912.027344 572.523438 C 930.167969 588.511719 950.144531 606.34375 968.285156 622.335938 C 969.226562 618.363281 970.996094 614.609375 973.574219 611.421875 C 954.9375 594.996094 934.464844 576.726562 915.832031 560.296875 Z M 915.832031 560.296875 " fill-opacity="1" fill-rule="nonzero"/>
  <g clip-path="url(#dcf30e4352)">
    <path fill="#3c7f72" d="M 795.128906 623.246094 C 790.570312 619.789062 784.863281 617.660156 778.371094 617.308594 C 762.589844 616.460938 751.1875 630.742188 750.402344 645.277344 C 749.554688 661.0625 763.835938 672.464844 778.371094 673.246094 C 793.519531 674.0625 804.605469 660.933594 806.167969 647.023438 C 806.292969 646.492188 806.375 645.925781 806.339844 645.277344 C 806.375 644.648438 806.296875 644.089844 806.171875 643.5625 C 805.734375 639.363281 804.566406 635.503906 802.738281 632.121094 C 823.976562 613.402344 846.128906 593.757812 867.363281 575.039062 C 864.878906 571.804688 863.105469 568.03125 862.328125 563.902344 C 840.234375 583.375 817.222656 603.773438 795.128906 623.246094 Z M 762.109375 645.277344 C 760.980469 624.304688 793.507812 624.414062 794.632812 645.277344 C 793.503906 666.238281 763.238281 666.238281 762.109375 645.277344 Z M 762.109375 645.277344 " fill-opacity="1" fill-rule="nonzero"/>
  </g>
  <path fill="#3c7f72" d="M 916.613281 555.9375 C 916.585938 555.71875 916.550781 555.503906 916.507812 555.289062 C 916.492188 554.992188 916.464844 554.695312 916.40625 554.382812 C 913.753906 540.308594 900.726562 530.394531 886.453125 531.589844 C 871.941406 532.808594 861.375 545.171875 860.980469 559.421875 C 860.925781 561.273438 861.082031 563.074219 861.410156 564.820312 C 862.1875 568.945312 863.960938 572.71875 866.445312 575.957031 C 871.953125 583.121094 880.941406 587.625 890.285156 587.347656 C 900.023438 587.058594 908.335938 581.363281 912.949219 573.441406 C 915.097656 569.746094 916.441406 565.566406 916.75 561.21875 C 916.871094 559.476562 916.839844 557.710938 916.613281 555.9375 Z M 890.285156 575.640625 C 880.597656 576.511719 873.15625 568.703125 872.6875 559.421875 C 872.261719 551.0625 879.15625 544.769531 886.796875 543.261719 C 895.75 541.492188 903.164062 548.789062 904.984375 556.867188 C 905.734375 566.140625 900.140625 574.753906 890.285156 575.640625 Z M 890.285156 575.640625 " fill-opacity="1" fill-rule="nonzero"/>
  <path fill="#3c7f72" d="M 1018.816406 614.875 C 1018.640625 614.53125 1018.449219 614.226562 1018.25 613.949219 C 1018.234375 613.929688 1018.226562 613.914062 1018.21875 613.898438 C 1010.09375 601.066406 993.960938 596.9375 980.460938 604.070312 C 977.339844 605.722656 974.734375 607.925781 972.65625 610.5 C 970.078125 613.691406 968.308594 617.445312 967.367188 621.414062 C 965.683594 628.519531 966.644531 636.324219 970.371094 642.816406 C 977.761719 655.699219 993.992188 659.171875 1006.914062 653.324219 C 1017.660156 648.464844 1022.675781 637.210938 1021.890625 626.242188 C 1021.636719 622.679688 1020.769531 619.148438 1019.289062 615.878906 C 1019.160156 615.542969 1019.011719 615.207031 1018.816406 614.875 Z M 1002.078125 642.65625 C 995.128906 646.773438 985.742188 644.277344 981.117188 637.898438 C 975.757812 630.503906 977.792969 620.082031 985.1875 614.902344 C 993.296875 609.222656 1003.96875 612.632812 1008.707031 620.78125 C 1012.761719 628.894531 1009.738281 638.113281 1002.078125 642.65625 Z M 1002.078125 642.65625 " fill-opacity="1" fill-rule="nonzero"/>
  <g clip-path="url(#ba04d511f5)">
    <path fill="#3c7f72" d="M 1128.921875 543.855469 C 1128.511719 529.160156 1116.113281 518.058594 1101.960938 517.191406 C 1101.648438 517.15625 1101.332031 517.132812 1100.992188 517.144531 C 1100.652344 517.132812 1100.335938 517.15625 1100.03125 517.191406 C 1085.324219 518.054688 1074.285156 529.164062 1073.050781 543.855469 C 1072.515625 550.285156 1074.511719 556.261719 1078.085938 561.113281 C 1080.414062 564.28125 1083.417969 566.964844 1086.828125 568.980469 C 1091.789062 571.914062 1097.609375 573.433594 1103.480469 572.941406 C 1118.363281 571.691406 1129.335938 558.5625 1128.921875 543.855469 Z M 1103.144531 561.269531 C 1092.722656 563.328125 1084.496094 553.425781 1084.765625 543.855469 C 1085.003906 535.296875 1092.910156 529.074219 1100.992188 528.851562 C 1109.433594 529.085938 1116.496094 535.304688 1117.214844 543.855469 C 1117.960938 552.722656 1111.476562 559.625 1103.144531 561.269531 Z M 1103.144531 561.269531 " fill-opacity="1" fill-rule="nonzero"/>
  </g>
  <g transform="matrix(1, 0, 0, 1, 165, 621)">
    <g clip-path="url(#5f87a857f4)">
      <g fill="#000000" fill-opacity="1">
        <g transform="translate(1.984395, 249.133633)">
          <g>
            <path d="M 82.9375 -181.34375 C 98.570312 -181.34375 111.328125 -178.765625 121.203125 -173.609375 C 131.078125 -168.460938 138.585938 -161.46875 143.734375 -152.625 C 148.890625 -143.78125 152.066406 -133.863281 153.265625 -122.875 L 106.90625 -122.875 C 105.875 -130.257812 103.335938 -136.179688 99.296875 -140.640625 C 95.265625 -145.109375 89.472656 -147.34375 81.921875 -147.34375 C 76.585938 -147.34375 72.289062 -146.050781 69.03125 -143.46875 C 65.769531 -140.894531 64.140625 -136.863281 64.140625 -131.375 C 64.140625 -125.707031 66.757812 -120.941406 72 -117.078125 C 77.238281 -113.210938 87.15625 -109.5625 101.75 -106.125 C 121.320312 -101.488281 135.398438 -94.40625 143.984375 -84.875 C 152.578125 -75.34375 156.875 -63.707031 156.875 -49.96875 C 156.875 -38.125 153.523438 -28.25 146.828125 -20.34375 C 140.128906 -12.445312 131.5 -6.476562 120.9375 -2.4375 C 110.375 1.59375 99.082031 3.609375 87.0625 3.609375 C 64.570312 3.609375 46.238281 -1.066406 32.0625 -10.421875 C 17.894531 -19.785156 10.128906 -34.429688 8.765625 -54.359375 L 55.125 -54.359375 C 56.664062 -45.941406 60.441406 -39.84375 66.453125 -36.0625 C 72.460938 -32.28125 78.90625 -30.390625 85.78125 -30.390625 C 92.300781 -30.390625 97.707031 -31.9375 102 -35.03125 C 106.300781 -38.125 108.453125 -42.070312 108.453125 -46.875 C 108.453125 -51.519531 106.429688 -55.769531 102.390625 -59.625 C 98.359375 -63.488281 90.847656 -66.796875 79.859375 -69.546875 C 66.460938 -72.984375 54.953125 -76.929688 45.328125 -81.390625 C 35.710938 -85.859375 28.375 -91.742188 23.3125 -99.046875 C 18.25 -106.347656 15.71875 -115.921875 15.71875 -127.765625 C 15.71875 -139.273438 18.847656 -148.976562 25.109375 -156.875 C 31.378906 -164.769531 39.625 -170.820312 49.84375 -175.03125 C 60.0625 -179.238281 71.09375 -181.34375 82.9375 -181.34375 Z M 82.9375 -181.34375 "/>
          </g>
        </g>
      </g>
      <g fill="#000000" fill-opacity="1">
        <g transform="translate(163.241733, 249.133633)">
          <g>
            <path d="M 69.546875 -107.671875 L 69.546875 -56.921875 C 69.546875 -54.691406 69.546875 -52.375 69.546875 -49.96875 C 69.546875 -47.5625 69.632812 -45.414062 69.8125 -43.53125 C 70.15625 -38.894531 71.054688 -35.375 72.515625 -32.96875 C 73.972656 -30.5625 76.632812 -28.972656 80.5 -28.203125 C 84.363281 -27.429688 89.898438 -27.21875 97.109375 -27.5625 L 97.109375 1.28125 C 92.648438 1.96875 88.226562 2.523438 83.84375 2.953125 C 79.46875 3.390625 74.789062 3.609375 69.8125 3.609375 C 58.476562 3.609375 49.546875 2.445312 43.015625 0.125 C 36.492188 -2.1875 31.769531 -5.703125 28.84375 -10.421875 C 25.925781 -15.148438 24.210938 -21.035156 23.703125 -28.078125 C 23.523438 -32.023438 23.394531 -35.757812 23.3125 -39.28125 C 23.226562 -42.800781 23.1875 -46.453125 23.1875 -50.234375 L 23.1875 -107.671875 L 1.28125 -107.671875 L 1.28125 -136.53125 L 23.1875 -136.53125 L 23.1875 -172.078125 L 69.546875 -172.078125 L 69.546875 -136.53125 L 99.953125 -136.53125 L 99.953125 -107.671875 Z M 69.546875 -107.671875 "/>
          </g>
        </g>
      </g>
      <g fill="#000000" fill-opacity="1">
        <g transform="translate(266.281574, 249.133633)">
          <g>
            <path d="M 94.53125 0 L 91.453125 -20.09375 L 85.78125 -5.671875 C 75.988281 0.515625 64.65625 3.609375 51.78125 3.609375 C 44.21875 3.609375 37.085938 2.0625 30.390625 -1.03125 C 23.691406 -4.125 18.238281 -8.71875 14.03125 -14.8125 C 9.832031 -20.90625 7.734375 -28.332031 7.734375 -37.09375 C 7.734375 -51.863281 14.300781 -63.453125 27.4375 -71.859375 C 40.570312 -80.273438 58.816406 -84.484375 82.171875 -84.484375 L 90.9375 -84.484375 L 90.9375 -86.546875 C 90.9375 -87.921875 90.9375 -89.378906 90.9375 -90.921875 C 90.9375 -92.472656 90.765625 -94.363281 90.421875 -96.59375 C 90.078125 -100.03125 88.488281 -103.078125 85.65625 -105.734375 C 82.820312 -108.398438 78.910156 -109.734375 73.921875 -109.734375 C 68.597656 -109.734375 64.390625 -108.101562 61.296875 -104.84375 C 58.210938 -101.582031 56.5 -96.945312 56.15625 -90.9375 L 12.359375 -90.671875 C 12.535156 -101.492188 15.5 -110.640625 21.25 -118.109375 C 27 -125.578125 34.679688 -131.285156 44.296875 -135.234375 C 53.921875 -139.179688 64.484375 -141.15625 75.984375 -141.15625 C 90.585938 -141.15625 102.179688 -139.179688 110.765625 -135.234375 C 119.347656 -131.285156 125.613281 -126.003906 129.5625 -119.390625 C 133.519531 -112.785156 135.84375 -105.273438 136.53125 -96.859375 C 137.039062 -89.984375 137.296875 -82.171875 137.296875 -73.421875 L 137.296875 -34.78125 C 137.296875 -29.625 137.46875 -24.425781 137.8125 -19.1875 C 138.15625 -13.945312 138.84375 -7.550781 139.875 0 Z M 70.84375 -27.8125 C 75.476562 -27.8125 79.984375 -29.570312 84.359375 -33.09375 C 88.742188 -36.613281 90.9375 -41.984375 90.9375 -49.203125 L 90.9375 -58.21875 C 80.457031 -59.070312 71.867188 -58.082031 65.171875 -55.25 C 58.472656 -52.414062 55.125 -47.566406 55.125 -40.703125 C 55.125 -36.578125 56.582031 -33.394531 59.5 -31.15625 C 62.425781 -28.925781 66.207031 -27.8125 70.84375 -27.8125 Z M 70.84375 -27.8125 "/>
          </g>
        </g>
      </g>
      <g fill="#000000" fill-opacity="1">
        <g transform="translate(417.492511, 249.133633)">
          <g>
            <path d="M 105.609375 -141.15625 C 118.148438 -141.15625 128.925781 -138.191406 137.9375 -132.265625 C 146.957031 -126.347656 153.910156 -118.191406 158.796875 -107.796875 C 163.691406 -97.410156 166.140625 -85.4375 166.140625 -71.875 C 166.140625 -55.550781 163.175781 -41.765625 157.25 -30.515625 C 151.332031 -19.273438 143.4375 -10.773438 133.5625 -5.015625 C 123.6875 0.734375 112.828125 3.609375 100.984375 3.609375 C 95.304688 3.609375 89.460938 3.003906 83.453125 1.796875 C 77.441406 0.597656 72.722656 -1.03125 69.296875 -3.09375 L 60.28125 -17.78125 L 60.28125 0 L 13.90625 0 L 13.90625 -189.328125 L 60.28125 -189.328125 L 60.28125 -117.46875 L 70.578125 -132.65625 C 74.523438 -135.582031 79.632812 -137.726562 85.90625 -139.09375 C 92.175781 -140.46875 98.742188 -141.15625 105.609375 -141.15625 Z M 88.359375 -27.8125 C 97.453125 -27.8125 104.789062 -31.242188 110.375 -38.109375 C 115.957031 -44.984375 118.75 -55.460938 118.75 -69.546875 C 118.75 -82.429688 115.914062 -92.347656 110.25 -99.296875 C 104.582031 -106.253906 97.710938 -109.734375 89.640625 -109.734375 C 81.222656 -109.734375 74.222656 -106.8125 68.640625 -100.96875 C 63.066406 -95.132812 60.28125 -85.003906 60.28125 -70.578125 L 60.28125 -64.65625 C 60.28125 -55.550781 61.648438 -48.296875 64.390625 -42.890625 C 67.140625 -37.484375 70.660156 -33.617188 74.953125 -31.296875 C 79.253906 -28.972656 83.722656 -27.8125 88.359375 -27.8125 Z M 88.359375 -27.8125 "/>
          </g>
        </g>
      </g>
      <g fill="#000000" fill-opacity="1">
        <g transform="translate(589.82668, 249.133633)">
          <g>
            <path d="M 37.09375 -193.453125 C 44.300781 -193.453125 50.09375 -191.429688 54.46875 -187.390625 C 58.851562 -183.359375 61.046875 -177.820312 61.046875 -170.78125 C 61.046875 -163.914062 58.851562 -158.421875 54.46875 -154.296875 C 50.09375 -150.171875 44.300781 -148.109375 37.09375 -148.109375 C 29.882812 -148.109375 24.085938 -150.171875 19.703125 -154.296875 C 15.328125 -158.421875 13.140625 -163.914062 13.140625 -170.78125 C 13.140625 -177.820312 15.328125 -183.359375 19.703125 -187.390625 C 24.085938 -191.429688 29.882812 -193.453125 37.09375 -193.453125 Z M 60.28125 0 L 13.90625 0 L 13.90625 -137.5625 L 60.28125 -137.5625 Z M 60.28125 0 "/>
          </g>
        </g>
      </g>
      <g fill="#000000" fill-opacity="1">
        <g transform="translate(664.015339, 249.133633)">
          <g>
            <path d="M 59.25 -189.328125 L 59.25 -49.453125 C 59.25 -46.191406 59.289062 -43.703125 59.375 -41.984375 C 59.457031 -40.265625 59.585938 -38.546875 59.765625 -36.828125 C 60.109375 -34.085938 61.222656 -32.242188 63.109375 -31.296875 C 64.992188 -30.347656 68.941406 -29.960938 74.953125 -30.140625 L 74.953125 1.28125 C 70.660156 1.625 66.367188 1.925781 62.078125 2.1875 C 57.785156 2.445312 53.0625 2.578125 47.90625 2.578125 C 37.257812 2.578125 28.972656 0.390625 23.046875 -3.984375 C 17.128906 -8.367188 13.910156 -15.113281 13.390625 -24.21875 C 13.222656 -27.820312 13.09375 -31.507812 13 -35.28125 C 12.914062 -39.0625 12.875 -43.53125 12.875 -48.6875 L 12.875 -189.328125 Z M 59.25 -189.328125 "/>
          </g>
        </g>
      </g>
      <g fill="#000000" fill-opacity="1">
        <g transform="translate(742.583271, 249.133633)">
          <g>
            <path d="M 37.09375 -193.453125 C 44.300781 -193.453125 50.09375 -191.429688 54.46875 -187.390625 C 58.851562 -183.359375 61.046875 -177.820312 61.046875 -170.78125 C 61.046875 -163.914062 58.851562 -158.421875 54.46875 -154.296875 C 50.09375 -150.171875 44.300781 -148.109375 37.09375 -148.109375 C 29.882812 -148.109375 24.085938 -150.171875 19.703125 -154.296875 C 15.328125 -158.421875 13.140625 -163.914062 13.140625 -170.78125 C 13.140625 -177.820312 15.328125 -183.359375 19.703125 -187.390625 C 24.085938 -191.429688 29.882812 -193.453125 37.09375 -193.453125 Z M 60.28125 0 L 13.90625 0 L 13.90625 -137.5625 L 60.28125 -137.5625 Z M 60.28125 0 "/>
          </g>
        </g>
      </g>
      <g fill="#000000" fill-opacity="1">
        <g transform="translate(816.77193, 249.133633)">
          <g>
            <path d="M 158.421875 -137.5625 L 158.421875 50.484375 L 112.046875 50.484375 L 112.046875 -20.09375 L 101.75 -4.890625 C 97.96875 -2.140625 92.941406 -0.0351562 86.671875 1.421875 C 80.410156 2.878906 73.757812 3.609375 66.71875 3.609375 C 54.351562 3.609375 43.617188 0.644531 34.515625 -5.28125 C 25.410156 -11.207031 18.410156 -19.363281 13.515625 -29.75 C 8.628906 -40.144531 6.1875 -52.125 6.1875 -65.6875 C 6.1875 -82 9.144531 -95.78125 15.0625 -107.03125 C 20.988281 -118.28125 28.929688 -126.78125 38.890625 -132.53125 C 48.859375 -138.28125 59.679688 -141.15625 71.359375 -141.15625 C 77.023438 -141.15625 82.863281 -140.554688 88.875 -139.359375 C 94.882812 -138.160156 99.601562 -136.53125 103.03125 -134.46875 L 112.046875 -119.78125 L 112.046875 -137.5625 Z M 82.6875 -27.8125 C 91.269531 -27.8125 98.304688 -30.734375 103.796875 -36.578125 C 109.296875 -42.421875 112.046875 -52.550781 112.046875 -66.96875 L 112.046875 -72.90625 C 112.046875 -82.175781 110.671875 -89.472656 107.921875 -94.796875 C 105.179688 -100.117188 101.664062 -103.9375 97.375 -106.25 C 93.082031 -108.570312 88.613281 -109.734375 83.96875 -109.734375 C 75.039062 -109.734375 67.742188 -106.296875 62.078125 -99.421875 C 56.410156 -92.554688 53.578125 -82.082031 53.578125 -68 C 53.578125 -55.125 56.410156 -45.207031 62.078125 -38.25 C 67.742188 -31.289062 74.613281 -27.8125 82.6875 -27.8125 Z M 82.6875 -27.8125 "/>
          </g>
        </g>
      </g>
    </g>
  </g>
</svg>
