<svg width="100" height="100" viewBox="0 0 100 100" fill="none" xmlns="http://www.w3.org/2000/svg">
<path id="Vector" d="M50 3.05881e-06C43.4333 -0.00229421 36.9304 1.28943 30.8631 3.80135C24.7958 6.31327 19.2829 9.99615 14.6395 14.6395C9.99615 19.2829 6.31327 24.7958 3.80135 30.8631C1.28943 36.9304 -0.00229421 43.4333 3.05881e-06 50C-0.00229421 56.5667 1.28943 63.0696 3.80135 69.1369C6.31327 75.2042 9.99615 80.7171 14.6395 85.3605C19.2829 90.0039 24.7958 93.6867 30.8631 96.1987C36.9304 98.7106 43.4333 100.002 50 100C56.5667 100.002 63.0696 98.7106 69.1369 96.1987C75.2042 93.6867 80.7171 90.0039 85.3605 85.3605C90.0039 80.7171 93.6867 75.2042 96.1987 69.1369C98.7106 63.0696 100.002 56.5667 100 50C100.002 43.4333 98.7106 36.9304 96.1987 30.8631C93.6867 24.7958 90.0039 19.2829 85.3605 14.6395C80.7171 9.99615 75.2042 6.31327 69.1369 3.80135C63.0696 1.28943 56.5667 -0.00229421 50 3.05881e-06ZM50 86.014C48.5048 86.0174 47.0422 85.577 45.7975 84.7485C44.5528 83.9199 43.5821 82.7406 43.0083 81.3598C42.4345 79.9791 42.2835 78.4591 42.5744 76.9924C42.8652 75.5258 43.5849 74.1785 44.6422 73.1212C45.6994 72.0639 47.0468 71.3442 48.5134 71.0534C49.9801 70.7625 51.5001 70.9136 52.8808 71.4874C54.2615 72.0611 55.4409 73.0319 56.2694 74.2765C57.098 75.5212 57.5384 76.9838 57.535 78.479C57.5304 80.476 56.735 82.3899 55.3229 83.8019C53.9108 85.214 51.997 86.0094 50 86.014ZM59.1434 23.7762L56.2937 62.2378C56.2759 62.5037 56.1576 62.7528 55.9628 62.9347C55.768 63.1165 55.5113 63.2174 55.2448 63.2168H44.7552C44.4888 63.2174 44.232 63.1165 44.0372 62.9347C43.8424 62.7528 43.7241 62.5037 43.7063 62.2378L40.8566 23.7762C40.7794 22.5279 40.9586 21.2771 41.3832 20.1007C41.8077 18.9243 42.4687 17.8473 43.3253 16.936C44.1819 16.0248 45.2161 15.2986 46.364 14.8022C47.5119 14.3058 48.7493 14.0497 50 14.0497C51.2507 14.0497 52.4881 14.3058 53.636 14.8022C54.784 15.2986 55.8181 16.0248 56.6747 16.936C57.5313 17.8473 58.1923 18.9243 58.6168 20.1007C59.0414 21.2771 59.2206 22.5279 59.1434 23.7762Z" fill="#FFC048"/>
</svg>
